<svg width="36" height="36" viewBox="0 0 24 24" fill="none" xmlns="http://www.w3.org/2000/svg">
<path d="M12.0021 6.87223C10.9879 6.87195 9.99636 7.17245 9.15292 7.73572C8.30947 8.299 7.65201 9.09975 7.26369 10.0367C6.87536 10.9736 6.77361 12.0047 6.9713 12.9995C7.169 13.9943 7.65726 14.9081 8.37433 15.6254C9.09141 16.3426 10.0051 16.8312 10.9998 17.0291C11.9945 17.2271 13.0256 17.1256 13.9627 16.7376C14.8998 16.3495 15.7007 15.6923 16.2642 14.849C16.8277 14.0057 17.1285 13.0142 17.1285 12C17.1296 11.3264 16.9978 10.6592 16.7406 10.0367C16.4834 9.41414 16.1058 8.84847 15.6296 8.37211C15.1534 7.89575 14.5878 7.51805 13.9654 7.26067C13.3429 7.0033 12.6757 6.87129 12.0021 6.87223ZM12.0021 15.3335C11.3428 15.3337 10.6982 15.1383 10.1499 14.7721C9.60166 14.4059 9.17429 13.8853 8.92187 13.2762C8.66946 12.6671 8.60334 11.9968 8.73188 11.3501C8.86043 10.7034 9.17786 10.1094 9.64403 9.6431C10.1102 9.17683 10.7042 8.85928 11.3508 8.73059C11.9975 8.60191 12.6678 8.66788 13.2769 8.92017C13.8861 9.17245 14.4068 9.59972 14.7731 10.1479C15.1394 10.6961 15.3349 11.3407 15.3349 12C15.3334 12.8835 14.9818 13.7304 14.3572 14.3552C13.7325 14.98 12.8857 15.3318 12.0021 15.3335ZM18.5342 6.66224C18.5342 6.89875 18.464 7.12996 18.3326 7.3266C18.2012 7.52325 18.0144 7.6765 17.7959 7.76698C17.5774 7.85746 17.3369 7.8811 17.1049 7.8349C16.873 7.78871 16.6599 7.67476 16.4927 7.50747C16.3256 7.34018 16.2117 7.12706 16.1657 6.89507C16.1196 6.66308 16.1434 6.42264 16.234 6.20417C16.3246 5.9857 16.478 5.79901 16.6747 5.66771C16.8714 5.53641 17.1027 5.4664 17.3392 5.46655C17.4963 5.46626 17.652 5.49702 17.7972 5.55707C17.9424 5.61711 18.0743 5.70525 18.1853 5.81642C18.2963 5.92759 18.3843 6.05961 18.4442 6.20488C18.5041 6.35015 18.5346 6.50583 18.5342 6.66295V6.66224ZM21.9298 7.8765C21.9629 6.32171 21.3828 4.81635 20.3149 3.68586C19.1825 2.62121 17.6789 2.04139 16.1249 2.07018C14.4742 1.97661 9.52576 1.97661 7.87507 2.07018C6.3219 2.03931 4.8183 2.61742 3.68586 3.68086C2.61935 4.81259 2.03926 6.31746 2.07018 7.87222C1.97661 9.52362 1.97661 14.4728 2.07018 16.1235C2.0371 17.6783 2.61722 19.1836 3.68515 20.3141C4.81792 21.3781 6.32126 21.9578 7.87507 21.9298C9.52576 22.0234 14.4742 22.0234 16.1249 21.9298C17.6794 21.9626 19.1843 21.3822 20.3141 20.3141C21.3784 19.1818 21.9581 17.6786 21.9298 16.1249C22.0234 14.4721 22.0234 9.5279 21.9298 7.8765ZM19.797 17.8949C19.6274 18.3251 19.3711 18.7159 19.0442 19.043C18.7172 19.3701 18.3265 19.6265 17.8963 19.7963C16.5799 20.3184 13.4571 20.1977 12.0021 20.1977C10.5472 20.1977 7.42008 20.3134 6.10796 19.7963C5.67778 19.6265 5.28708 19.3701 4.96012 19.043C4.63316 18.7159 4.37691 18.3251 4.20728 17.8949C3.68515 16.5785 3.80586 13.4543 3.80586 12C3.80586 10.5457 3.69015 7.41651 4.20728 6.1051C4.37691 5.67486 4.63316 5.28406 4.96012 4.95698C5.28708 4.6299 5.67778 4.3735 6.10796 4.20371C7.42437 3.68158 10.5472 3.80229 12.0021 3.80229C13.4571 3.80229 16.5842 3.68658 17.8963 4.20371C18.3265 4.3735 18.7172 4.6299 19.0442 4.95698C19.3711 5.28406 19.6274 5.67486 19.797 6.1051C20.3191 7.42151 20.1984 10.5457 20.1984 12C20.1984 13.4543 20.3191 16.5835 19.797 17.8949Z" fill="url(#paint0_linear)"/>
<defs>
<linearGradient id="paint0_linear" x1="20.5" y1="3" x2="3.5" y2="20.5" gradientUnits="userSpaceOnUse">
<stop stop-color="#DA01B2"/>
<stop offset="0.479167" stop-color="#FF0D01"/>
<stop offset="1" stop-color="#FFD201"/>
</linearGradient>
</defs>
</svg>
