<svg width="320" height="359" viewBox="0 0 320 359" fill="none" xmlns="http://www.w3.org/2000/svg">
<path d="M17.792 47.2892L12.6124 52.4695L7.37808 47.2358L0 54.6139L12.6124 67.227L25.1715 54.6686L17.792 47.2892Z" fill="#1FD4AF"/>
<path d="M30.7804 164.231L25.6008 169.41L20.3665 164.177L12.9884 171.555L25.6008 184.168L38.1592 171.609L30.7804 164.231Z" fill="#1FD4AF"/>
<path d="M312.174 211.319L306.993 216.498L301.76 211.265L294.38 218.643L306.993 231.256L319.552 218.697L312.174 211.319Z" fill="#1FD4AF"/>
<path d="M253.028 145.75V113.343C253.028 61.9247 211.197 20.0933 159.778 20.0933C108.36 20.0933 66.5285 61.9247 66.5285 113.343V145.75H53.1526V359H266.403V145.75H253.028ZM76.9637 113.343C76.9637 67.6793 114.114 30.5284 159.779 30.5284C205.443 30.5284 242.594 67.6786 242.594 113.343V145.75H231.391V114.167C231.391 74.6807 199.266 42.5563 159.78 42.5563C120.294 42.5563 88.1672 74.6814 88.1672 114.167V145.75H76.9637V113.343ZM220.955 114.167V145.75H98.6023V114.167C98.6023 80.4345 126.046 52.9915 159.778 52.9915C193.511 52.9915 220.955 80.4352 220.955 114.167ZM255.968 348.565H63.5884V322.862H255.968V348.565ZM255.968 312.427H63.5884V192.323H255.968V312.427ZM255.968 181.887H63.5884V156.185H66.5285H88.1672H231.39H253.028H255.968V181.887Z" fill="#444B54"/>
<path d="M292.617 52.7158L260.09 66.2676L264.104 75.9003L296.63 62.3485L292.617 52.7158Z" fill="#1FD4AF"/>
<path d="M268.747 105.684L268.346 116.112L303.559 117.465L303.959 107.037L268.747 105.684Z" fill="#1FD4AF"/>
<path d="M258.35 9.00013L234.515 34.9561L242.202 42.0148L266.037 16.0589L258.35 9.00013Z" fill="#1FD4AF"/>
<path d="M240.412 287.83V296.765H218.463V307.2H250.847V287.83H240.412Z" fill="#1FD4AF"/>
<path d="M250.849 269.555H240.414V282.264H250.849V269.555Z" fill="#1FD4AF"/>
<path d="M78.3569 201.657H67.9217V230.562H78.3569V201.657Z" fill="#1FD4AF"/>
<path d="M106.983 78.4419C127.402 78.4419 143.954 61.8895 143.954 41.471C143.954 21.0525 127.402 4.5 106.983 4.5C86.5648 4.5 70.0123 21.0525 70.0123 41.471C70.0123 61.8895 86.5648 78.4419 106.983 78.4419Z" fill="#444B54" stroke="#1FD4AF" stroke-width="9"/>
<rect x="9.2852" y="246.607" width="171.47" height="43.6371" rx="5.5" fill="#444B54" stroke="#1FD4AF" stroke-width="9"/>
<path d="M33.7159 277.682L33.9716 270.651L28.027 274.422L26.4929 271.737L32.7571 268.477L26.4929 265.217L28.027 262.533L33.9716 266.304L33.7159 259.273H36.7841L36.5284 266.304L42.473 262.533L44.0071 265.217L37.7429 268.477L44.0071 271.737L42.473 274.422L36.5284 270.651L36.7841 277.682H33.7159ZM63.4159 277.682L63.6716 270.651L57.727 274.422L56.1929 271.737L62.4571 268.477L56.1929 265.217L57.727 262.533L63.6716 266.304L63.4159 259.273H66.4841L66.2284 266.304L72.173 262.533L73.7071 265.217L67.4429 268.477L73.7071 271.737L72.173 274.422L66.2284 270.651L66.4841 277.682H63.4159ZM93.1159 277.682L93.3716 270.651L87.427 274.422L85.8929 271.737L92.1571 268.477L85.8929 265.217L87.427 262.533L93.3716 266.304L93.1159 259.273H96.1841L95.9284 266.304L101.873 262.533L103.407 265.217L97.1429 268.477L103.407 271.737L101.873 274.422L95.9284 270.651L96.1841 277.682H93.1159ZM122.816 277.682L123.072 270.651L117.127 274.422L115.593 271.737L121.857 268.477L115.593 265.217L117.127 262.533L123.072 266.304L122.816 259.273H125.884L125.628 266.304L131.573 262.533L133.107 265.217L126.843 268.477L133.107 271.737L131.573 274.422L125.628 270.651L125.884 277.682H122.816ZM152.516 277.682L152.772 270.651L146.827 274.422L145.293 271.737L151.557 268.477L145.293 265.217L146.827 262.533L152.772 266.304L152.516 259.273H155.584L155.328 266.304L161.273 262.533L162.807 265.217L156.543 268.477L162.807 271.737L161.273 274.422L155.328 270.651L155.584 277.682H152.516Z" fill="#1FD4AF"/>
<path d="M92.2859 41.4402C92.2859 40.3795 92.6734 39.4821 93.4485 38.7478C94.2236 38.0135 95.1211 37.6463 96.141 37.6463C97.1608 37.6463 98.0583 38.0135 98.8334 38.7478L104.279 44.1326L117.803 30.6705C118.537 29.8954 119.435 29.5078 120.495 29.5078C121.556 29.5078 122.453 29.8954 123.188 30.6705C123.922 31.4456 124.31 32.343 124.35 33.3629C124.391 34.3828 124.004 35.2802 123.188 36.0553L106.972 52.2711C106.238 53.0462 105.34 53.4338 104.279 53.4338C103.219 53.4338 102.321 53.0462 101.587 52.2711L93.4485 44.1326C92.6734 43.3983 92.2859 42.5009 92.2859 41.4402Z" fill="#1FD4AF"/>
</svg>
